<svg xmlns="http://www.w3.org/2000/svg" width="316" height="92" viewBox="0 0 316 92" role="img" aria-label="grootgenoot"><title>grootgenoot</title><circle cx="42" cy="44" r="26" fill="none" stroke="#2e63b0" stroke-width="9"/><path d="M30 48 Q42 59 54 48" fill="none" stroke="#2e63b0" stroke-width="4" stroke-linecap="round"/><circle cx="70" cy="60" r="16" fill="#2f7d55"/><path d="M63 63 Q70 70 77 63" fill="none" stroke="#ffffff" stroke-width="2.6" stroke-linecap="round"/><path d="M104.89 36.15 Q106.54 36.15 107.79 36.83 Q109.03 37.5 109.7 38.59 L109.7 36.38 L114.49 36.38 L114.49 51.97 Q114.49 54.13 113.64 55.88 Q112.78 57.63 111.03 58.66 Q109.28 59.7 106.68 59.7 Q103.21 59.7 101.05 58.06 Q98.9 56.42 98.59 53.62 L103.32 53.62 Q103.54 54.52 104.38 55.04 Q105.22 55.56 106.46 55.56 Q107.94 55.56 108.82 54.7 Q109.7 53.85 109.7 51.97 L109.7 49.76 Q109.0 50.85 107.77 51.54 Q106.54 52.22 104.89 52.22 Q102.96 52.22 101.39 51.23 Q99.82 50.24 98.91 48.4 Q98.0 46.57 98.0 44.16 Q98.0 41.75 98.91 39.93 Q99.82 38.11 101.39 37.13 Q102.96 36.15 104.89 36.15 Z M109.7 44.19 Q109.7 42.4 108.71 41.36 Q107.72 40.32 106.29 40.32 Q104.86 40.32 103.87 41.35 Q102.87 42.37 102.87 44.16 Q102.87 45.95 103.87 47.0 Q104.86 48.05 106.29 48.05 Q107.72 48.05 108.71 47.02 Q109.7 45.98 109.7 44.19 Z M122.75 38.98 Q123.59 37.69 124.85 36.95 Q126.11 36.21 127.65 36.21 L127.65 41.28 L126.34 41.28 Q124.55 41.28 123.65 42.05 Q122.75 42.82 122.75 44.75 L122.75 52.0 L117.97 52.0 L117.97 36.38 L122.75 36.38 L122.75 38.98 Z M137.06 52.22 Q134.77 52.22 132.93 51.24 Q131.1 50.26 130.05 48.44 Q129.0 46.62 129.0 44.19 Q129.0 41.78 130.06 39.95 Q131.13 38.11 132.97 37.13 Q134.82 36.15 137.12 36.15 Q139.41 36.15 141.26 37.13 Q143.11 38.11 144.17 39.95 Q145.24 41.78 145.24 44.19 Q145.24 46.6 144.16 48.43 Q143.08 50.26 141.22 51.24 Q139.36 52.22 137.06 52.22 Z M137.06 48.08 Q138.43 48.08 139.4 47.07 Q140.37 46.06 140.37 44.19 Q140.37 42.31 139.43 41.31 Q138.49 40.3 137.12 40.3 Q135.72 40.3 134.79 41.29 Q133.87 42.28 133.87 44.19 Q133.87 46.06 134.78 47.07 Q135.69 48.08 137.06 48.08 Z M154.9 52.22 Q152.6 52.22 150.77 51.24 Q148.93 50.26 147.88 48.44 Q146.83 46.62 146.83 44.19 Q146.83 41.78 147.9 39.95 Q148.96 38.11 150.81 37.13 Q152.66 36.15 154.95 36.15 Q157.25 36.15 159.1 37.13 Q160.95 38.11 162.01 39.95 Q163.07 41.78 163.07 44.19 Q163.07 46.6 161.99 48.43 Q160.92 50.26 159.05 51.24 Q157.19 52.22 154.9 52.22 Z M154.9 48.08 Q156.27 48.08 157.24 47.07 Q158.2 46.06 158.2 44.19 Q158.2 42.31 157.26 41.31 Q156.33 40.3 154.95 40.3 Q153.55 40.3 152.63 41.29 Q151.71 42.28 151.71 44.19 Q151.71 46.06 152.62 47.07 Q153.53 48.08 154.9 48.08 Z M174.33 47.94 L174.33 52.0 L171.89 52.0 Q169.29 52.0 167.83 50.73 Q166.38 49.45 166.38 46.57 L166.38 40.35 L164.47 40.35 L164.47 36.38 L166.38 36.38 L166.38 32.57 L171.16 32.57 L171.16 36.38 L174.3 36.38 L174.3 40.35 L171.16 40.35 L171.16 46.62 Q171.16 47.32 171.5 47.63 Q171.84 47.94 172.62 47.94 L174.33 47.94 Z" fill="#16324f"/><path d="M194.02 36.15 Q195.67 36.15 196.91 36.83 Q198.16 37.5 198.83 38.59 L198.83 36.38 L203.62 36.38 L203.62 51.97 Q203.62 54.13 202.76 55.88 Q201.91 57.63 200.16 58.66 Q198.41 59.7 195.81 59.7 Q192.34 59.7 190.18 58.06 Q188.02 56.42 187.72 53.62 L192.45 53.62 Q192.67 54.52 193.51 55.04 Q194.35 55.56 195.58 55.56 Q197.07 55.56 197.95 54.7 Q198.83 53.85 198.83 51.97 L198.83 49.76 Q198.13 50.85 196.9 51.54 Q195.67 52.22 194.02 52.22 Q192.08 52.22 190.51 51.23 Q188.95 50.24 188.04 48.4 Q187.13 46.57 187.13 44.16 Q187.13 41.75 188.04 39.93 Q188.95 38.11 190.51 37.13 Q192.08 36.15 194.02 36.15 Z M198.83 44.19 Q198.83 42.4 197.84 41.36 Q196.84 40.32 195.42 40.32 Q193.99 40.32 192.99 41.35 Q192.0 42.37 192.0 44.16 Q192.0 45.95 192.99 47.0 Q193.99 48.05 195.42 48.05 Q196.84 48.05 197.84 47.02 Q198.83 45.98 198.83 44.19 Z M221.82 43.94 Q221.82 44.61 221.74 45.34 L210.9 45.34 Q211.01 46.79 211.84 47.56 Q212.66 48.33 213.87 48.33 Q215.66 48.33 216.36 46.82 L221.46 46.82 Q221.06 48.36 220.04 49.59 Q219.02 50.82 217.48 51.52 Q215.94 52.22 214.04 52.22 Q211.74 52.22 209.95 51.24 Q208.16 50.26 207.15 48.44 Q206.14 46.62 206.14 44.19 Q206.14 41.75 207.13 39.93 Q208.13 38.11 209.92 37.13 Q211.71 36.15 214.04 36.15 Q216.3 36.15 218.07 37.11 Q219.83 38.06 220.83 39.82 Q221.82 41.58 221.82 43.94 Z M216.92 42.68 Q216.92 41.44 216.08 40.72 Q215.24 39.99 213.98 39.99 Q212.78 39.99 211.95 40.69 Q211.12 41.39 210.93 42.68 L216.92 42.68 Z" fill="#16324f"/><path d="M244.14 36.21 Q246.88 36.21 248.52 37.99 Q250.16 39.76 250.16 42.87 L250.16 52.0 L245.4 52.0 L245.4 43.52 Q245.4 41.95 244.59 41.08 Q243.78 40.21 242.4 40.21 Q241.03 40.21 240.22 41.08 Q239.41 41.95 239.41 43.52 L239.41 52.0 L234.62 52.0 L234.62 36.38 L239.41 36.38 L239.41 38.45 Q240.14 37.41 241.37 36.81 Q242.6 36.21 244.14 36.21 Z M260.6 52.22 Q258.31 52.22 256.47 51.24 Q254.64 50.26 253.59 48.44 Q252.54 46.62 252.54 44.19 Q252.54 41.78 253.6 39.95 Q254.67 38.11 256.52 37.13 Q258.36 36.15 260.66 36.15 Q262.96 36.15 264.8 37.13 Q266.65 38.11 267.72 39.95 Q268.78 41.78 268.78 44.19 Q268.78 46.6 267.7 48.43 Q266.62 50.26 264.76 51.24 Q262.9 52.22 260.6 52.22 Z M260.6 48.08 Q261.98 48.08 262.94 47.07 Q263.91 46.06 263.91 44.19 Q263.91 42.31 262.97 41.31 Q262.03 40.3 260.66 40.3 Q259.26 40.3 258.34 41.29 Q257.41 42.28 257.41 44.19 Q257.41 46.06 258.32 47.07 Q259.23 48.08 260.6 48.08 Z M278.44 52.22 Q276.14 52.22 274.31 51.24 Q272.47 50.26 271.42 48.44 Q270.37 46.62 270.37 44.19 Q270.37 41.78 271.44 39.95 Q272.5 38.11 274.35 37.13 Q276.2 36.15 278.49 36.15 Q280.79 36.15 282.64 37.13 Q284.49 38.11 285.55 39.95 Q286.61 41.78 286.61 44.19 Q286.61 46.6 285.53 48.43 Q284.46 50.26 282.59 51.24 Q280.73 52.22 278.44 52.22 Z M278.44 48.08 Q279.81 48.08 280.78 47.07 Q281.74 46.06 281.74 44.19 Q281.74 42.31 280.8 41.31 Q279.87 40.3 278.49 40.3 Q277.09 40.3 276.17 41.29 Q275.25 42.28 275.25 44.19 Q275.25 46.06 276.16 47.07 Q277.07 48.08 278.44 48.08 Z M297.87 47.94 L297.87 52.0 L295.43 52.0 Q292.83 52.0 291.37 50.73 Q289.92 49.45 289.92 46.57 L289.92 40.35 L288.01 40.35 L288.01 36.38 L289.92 36.38 L289.92 32.57 L294.71 32.57 L294.71 36.38 L297.84 36.38 L297.84 40.35 L294.71 40.35 L294.71 46.62 Q294.71 47.32 295.04 47.63 Q295.38 47.94 296.16 47.94 L297.87 47.94 Z" fill="#16324f"/><circle cx="180.73" cy="44" r="2.4" fill="#2f7d55"/><circle cx="228.22" cy="44" r="2.4" fill="#2f7d55"/><path d="M99.92 78.97 Q98.99 77.86 98.5 76.27 Q98.0 74.69 98.0 72.82 Q98.0 70.61 98.64 68.39 Q99.28 66.18 100.48 64.26 Q101.68 62.35 103.31 61.06 L104.83 61.06 L104.82 61.2 Q103.18 62.53 101.97 64.37 Q100.75 66.21 100.1 68.31 Q99.44 70.42 99.44 72.53 Q99.44 74.32 99.95 75.94 Q100.46 77.55 101.46 78.83 L101.44 78.97 L99.92 78.97 Z M104.16 71.58 Q104.4 70.24 105.13 69.22 Q105.85 68.21 106.91 67.65 Q107.97 67.09 109.15 67.09 Q110.16 67.09 110.96 67.56 Q111.76 68.03 112.09 68.8 L112.91 64.16 L114.38 64.16 L112.29 76.0 L110.81 76.0 L111.12 74.35 Q110.56 75.14 109.61 75.64 Q108.67 76.14 107.53 76.14 Q106.51 76.14 105.73 75.7 Q104.94 75.26 104.5 74.45 Q104.06 73.63 104.06 72.56 Q104.06 72.08 104.16 71.58 Z M111.6 71.6 Q111.66 71.26 111.66 70.88 Q111.66 69.71 110.97 69.03 Q110.27 68.35 109.2 68.35 Q108.38 68.35 107.64 68.74 Q106.89 69.12 106.37 69.86 Q105.84 70.59 105.66 71.58 Q105.6 71.92 105.6 72.32 Q105.6 73.5 106.29 74.18 Q106.97 74.86 108.05 74.86 Q108.86 74.86 109.61 74.47 Q110.35 74.08 110.89 73.34 Q111.42 72.59 111.6 71.6 Z M120.11 67.09 Q121.22 67.09 122.02 67.51 Q122.83 67.94 123.26 68.69 Q123.68 69.46 123.68 70.43 Q123.68 70.77 123.6 71.25 Q123.54 71.67 123.39 72.11 L116.38 72.11 Q116.35 72.43 116.35 72.58 Q116.35 73.68 117.02 74.3 Q117.68 74.91 118.75 74.91 Q119.7 74.91 120.41 74.47 Q121.12 74.03 121.49 73.3 L123.06 73.3 Q122.48 74.56 121.29 75.35 Q120.1 76.14 118.53 76.14 Q116.88 76.14 115.88 75.19 Q114.88 74.24 114.88 72.59 Q114.88 72.13 114.98 71.6 Q115.22 70.24 115.95 69.22 Q116.69 68.19 117.77 67.64 Q118.85 67.09 120.11 67.09 Z M122.13 71.06 Q122.18 70.74 122.18 70.46 Q122.18 69.44 121.53 68.88 Q120.88 68.32 119.84 68.32 Q118.72 68.32 117.81 69.05 Q116.9 69.78 116.58 71.06 L122.13 71.06 Z M123.74 78.97 L123.76 78.83 Q126.14 76.75 127.5 73.78 Q128.86 70.82 128.86 67.73 Q128.86 65.84 128.31 64.16 Q127.76 62.48 126.62 61.2 L126.66 61.06 L128.18 61.06 Q129.22 62.21 129.75 63.86 Q130.29 65.5 130.29 67.47 Q130.29 69.6 129.68 71.76 Q129.07 73.92 127.93 75.8 Q126.78 77.68 125.26 78.97 L123.74 78.97 Z" fill="#5b6472"/></svg>