<svg xmlns="http://www.w3.org/2000/svg" width="344" height="90" viewBox="0 0 344 90" role="img" aria-label="grootgenoot"><title>grootgenoot</title><circle cx="42" cy="44" r="26" fill="none" stroke="#2e63b0" stroke-width="9"/><path d="M30 48 Q42 59 54 48" fill="none" stroke="#2e63b0" stroke-width="4" stroke-linecap="round"/><circle cx="70" cy="60" r="16" fill="#2f7d55"/><path d="M63 63 Q70 70 77 63" fill="none" stroke="#ffffff" stroke-width="2.6" stroke-linecap="round"/><path d="M105.88 36.89 Q107.76 36.89 109.18 37.66 Q110.61 38.42 111.38 39.67 L111.38 37.14 L116.85 37.14 L116.85 54.97 Q116.85 57.43 115.87 59.43 Q114.9 61.43 112.9 62.62 Q110.9 63.8 107.92 63.8 Q103.96 63.8 101.49 61.92 Q99.02 60.06 98.68 56.86 L104.08 56.86 Q104.34 57.88 105.3 58.47 Q106.26 59.06 107.66 59.06 Q109.36 59.06 110.36 58.08 Q111.38 57.11 111.38 54.97 L111.38 52.44 Q110.58 53.69 109.16 54.48 Q107.76 55.26 105.88 55.26 Q103.66 55.26 101.87 54.12 Q100.08 52.98 99.04 50.89 Q98.0 48.79 98.0 46.04 Q98.0 43.29 99.04 41.21 Q100.08 39.13 101.87 38.01 Q103.66 36.89 105.88 36.89 Z M111.38 46.07 Q111.38 44.02 110.24 42.84 Q109.1 41.66 107.48 41.66 Q105.84 41.66 104.7 42.82 Q103.57 43.99 103.57 46.04 Q103.57 48.09 104.7 49.29 Q105.84 50.49 107.48 50.49 Q109.1 50.49 110.24 49.3 Q111.38 48.12 111.38 46.07 Z M126.29 40.12 Q127.25 38.65 128.69 37.8 Q130.13 36.95 131.89 36.95 L131.89 42.74 L130.38 42.74 Q128.34 42.74 127.31 43.62 Q126.29 44.5 126.29 46.71 L126.29 55.0 L120.82 55.0 L120.82 37.14 L126.29 37.14 L126.29 40.12 Z M142.64 55.26 Q140.02 55.26 137.92 54.14 Q135.82 53.02 134.62 50.94 Q133.42 48.86 133.42 46.07 Q133.42 43.32 134.64 41.22 Q135.86 39.13 137.97 38.01 Q140.08 36.89 142.7 36.89 Q145.33 36.89 147.44 38.01 Q149.55 39.13 150.77 41.22 Q151.98 43.32 151.98 46.07 Q151.98 48.82 150.75 50.92 Q149.52 53.02 147.39 54.14 Q145.26 55.26 142.64 55.26 Z M142.64 50.52 Q144.21 50.52 145.31 49.37 Q146.42 48.22 146.42 46.07 Q146.42 43.93 145.34 42.78 Q144.27 41.62 142.7 41.62 Q141.1 41.62 140.05 42.76 Q138.99 43.9 138.99 46.07 Q138.99 48.22 140.03 49.37 Q141.07 50.52 142.64 50.52 Z M163.02 55.26 Q160.4 55.26 158.3 54.14 Q156.21 53.02 155.01 50.94 Q153.81 48.86 153.81 46.07 Q153.81 43.32 155.02 41.22 Q156.24 39.13 158.35 38.01 Q160.46 36.89 163.09 36.89 Q165.71 36.89 167.82 38.01 Q169.94 39.13 171.15 41.22 Q172.37 43.32 172.37 46.07 Q172.37 48.82 171.13 50.92 Q169.9 53.02 167.77 54.14 Q165.65 55.26 163.02 55.26 Z M163.02 50.52 Q164.59 50.52 165.7 49.37 Q166.8 48.22 166.8 46.07 Q166.8 43.93 165.73 42.78 Q164.66 41.62 163.09 41.62 Q161.49 41.62 160.43 42.76 Q159.38 43.9 159.38 46.07 Q159.38 48.22 160.42 49.37 Q161.46 50.52 163.02 50.52 Z M185.23 50.36 L185.23 55.0 L182.45 55.0 Q179.47 55.0 177.81 53.54 Q176.15 52.09 176.15 48.79 L176.15 41.69 L173.97 41.69 L173.97 37.14 L176.15 37.14 L176.15 32.79 L181.62 32.79 L181.62 37.14 L185.2 37.14 L185.2 41.69 L181.62 41.69 L181.62 48.86 Q181.62 49.66 182.0 50.01 Q182.39 50.36 183.28 50.36 L185.23 50.36 Z" fill="#16324f"/><path d="M207.51 36.89 Q209.39 36.89 210.82 37.66 Q212.24 38.42 213.01 39.67 L213.01 37.14 L218.48 37.14 L218.48 54.97 Q218.48 57.43 217.5 59.43 Q216.53 61.43 214.53 62.62 Q212.53 63.8 209.55 63.8 Q205.59 63.8 203.12 61.92 Q200.66 60.06 200.31 56.86 L205.71 56.86 Q205.97 57.88 206.93 58.47 Q207.89 59.06 209.3 59.06 Q210.99 59.06 212.0 58.08 Q213.01 57.11 213.01 54.97 L213.01 52.44 Q212.21 53.69 210.8 54.48 Q209.39 55.26 207.51 55.26 Q205.3 55.26 203.5 54.12 Q201.71 52.98 200.67 50.89 Q199.63 48.79 199.63 46.04 Q199.63 43.29 200.67 41.21 Q201.71 39.13 203.5 38.01 Q205.3 36.89 207.51 36.89 Z M213.01 46.07 Q213.01 44.02 211.87 42.84 Q210.74 41.66 209.11 41.66 Q207.47 41.66 206.34 42.82 Q205.2 43.99 205.2 46.04 Q205.2 48.09 206.34 49.29 Q207.47 50.49 209.11 50.49 Q210.74 50.49 211.87 49.3 Q213.01 48.12 213.01 46.07 Z M239.28 45.78 Q239.28 46.55 239.18 47.38 L226.8 47.38 Q226.93 49.05 227.87 49.93 Q228.81 50.81 230.19 50.81 Q232.24 50.81 233.04 49.08 L238.86 49.08 Q238.41 50.84 237.24 52.25 Q236.08 53.66 234.32 54.46 Q232.56 55.26 230.38 55.26 Q227.76 55.26 225.71 54.14 Q223.66 53.02 222.51 50.94 Q221.36 48.86 221.36 46.07 Q221.36 43.29 222.49 41.21 Q223.63 39.13 225.68 38.01 Q227.73 36.89 230.38 36.89 Q232.97 36.89 234.99 37.98 Q237.01 39.06 238.14 41.08 Q239.28 43.1 239.28 45.78 Z M233.68 44.34 Q233.68 42.94 232.72 42.1 Q231.76 41.27 230.32 41.27 Q228.94 41.27 228.0 42.07 Q227.05 42.87 226.83 44.34 L233.68 44.34 Z" fill="#16324f"/><path d="M264.56 36.95 Q267.69 36.95 269.56 38.98 Q271.44 41.02 271.44 44.57 L271.44 55.0 L266.0 55.0 L266.0 45.3 Q266.0 43.51 265.07 42.52 Q264.14 41.53 262.57 41.53 Q261.0 41.53 260.07 42.52 Q259.15 43.51 259.15 45.3 L259.15 55.0 L253.68 55.0 L253.68 37.14 L259.15 37.14 L259.15 39.51 Q259.98 38.33 261.39 37.64 Q262.8 36.95 264.56 36.95 Z M283.37 55.26 Q280.75 55.26 278.65 54.14 Q276.56 53.02 275.36 50.94 Q274.16 48.86 274.16 46.07 Q274.16 43.32 275.37 41.22 Q276.59 39.13 278.7 38.01 Q280.81 36.89 283.44 36.89 Q286.06 36.89 288.17 38.01 Q290.29 39.13 291.5 41.22 Q292.72 43.32 292.72 46.07 Q292.72 48.82 291.48 50.92 Q290.25 53.02 288.12 54.14 Q286.0 55.26 283.37 55.26 Z M283.37 50.52 Q284.94 50.52 286.05 49.37 Q287.15 48.22 287.15 46.07 Q287.15 43.93 286.08 42.78 Q285.01 41.62 283.44 41.62 Q281.84 41.62 280.78 42.76 Q279.73 43.9 279.73 46.07 Q279.73 48.22 280.77 49.37 Q281.81 50.52 283.37 50.52 Z M303.76 55.26 Q301.14 55.26 299.04 54.14 Q296.94 53.02 295.74 50.94 Q294.54 48.86 294.54 46.07 Q294.54 43.32 295.76 41.22 Q296.98 39.13 299.09 38.01 Q301.2 36.89 303.82 36.89 Q306.45 36.89 308.56 38.01 Q310.67 39.13 311.89 41.22 Q313.1 43.32 313.1 46.07 Q313.1 48.82 311.87 50.92 Q310.64 53.02 308.51 54.14 Q306.38 55.26 303.76 55.26 Z M303.76 50.52 Q305.33 50.52 306.43 49.37 Q307.54 48.22 307.54 46.07 Q307.54 43.93 306.46 42.78 Q305.39 41.62 303.82 41.62 Q302.22 41.62 301.17 42.76 Q300.11 43.9 300.11 46.07 Q300.11 48.22 301.15 49.37 Q302.19 50.52 303.76 50.52 Z M325.97 50.36 L325.97 55.0 L323.18 55.0 Q320.21 55.0 318.54 53.54 Q316.88 52.09 316.88 48.79 L316.88 41.69 L314.7 41.69 L314.7 37.14 L316.88 37.14 L316.88 32.79 L322.35 32.79 L322.35 37.14 L325.94 37.14 L325.94 41.69 L322.35 41.69 L322.35 48.86 Q322.35 49.66 322.74 50.01 Q323.12 50.36 324.02 50.36 L325.97 50.36 Z" fill="#16324f"/><circle cx="192.43" cy="46" r="2.7" fill="#2f7d55"/><circle cx="246.48" cy="46" r="2.7" fill="#2f7d55"/></svg>